<svg width="120" height="131" viewBox="0 0 120 131" fill="none" xmlns="http://www.w3.org/2000/svg">
<g filter="url(#filter0_d_179_241)">
<mask id="path-1-inside-1_179_241" fill="white">
<path fill-rule="evenodd" clip-rule="evenodd" d="M58.9534 4.76184C26.2991 5.29823 0 30.8878 0 62.3766C0 94.2011 26.8629 120 60 120C93.1371 120 120 94.2011 120 62.3766C120 60.3949 119.896 58.4367 119.693 56.5065C117.054 57.9729 113.99 58.8122 110.722 58.8122C100.815 58.8122 92.7835 51.0992 92.7835 41.5846C92.7835 41.5371 92.7837 41.4897 92.7841 41.4422C82.6772 40.2697 74.8454 32.0037 74.8454 21.9809C74.8454 20.5518 75.0046 19.1584 75.3069 17.8162C75.1536 17.8204 74.9997 17.8224 74.8454 17.8224C66.8078 17.8224 60.1473 12.1598 58.9534 4.76184Z"/>
</mask>
<path fill-rule="evenodd" clip-rule="evenodd" d="M58.9534 4.76184C26.2991 5.29823 0 30.8878 0 62.3766C0 94.2011 26.8629 120 60 120C93.1371 120 120 94.2011 120 62.3766C120 60.3949 119.896 58.4367 119.693 56.5065C117.054 57.9729 113.99 58.8122 110.722 58.8122C100.815 58.8122 92.7835 51.0992 92.7835 41.5846C92.7835 41.5371 92.7837 41.4897 92.7841 41.4422C82.6772 40.2697 74.8454 32.0037 74.8454 21.9809C74.8454 20.5518 75.0046 19.1584 75.3069 17.8162C75.1536 17.8204 74.9997 17.8224 74.8454 17.8224C66.8078 17.8224 60.1473 12.1598 58.9534 4.76184Z" fill="#FED7AA"/>
<path d="M58.9534 4.76184L60.9279 4.4432L60.652 2.73367L58.9206 2.76211L58.9534 4.76184ZM119.693 56.5065L121.681 56.297L121.365 53.2892L118.721 54.7583L119.693 56.5065ZM92.7841 41.4422L94.784 41.4589L94.7991 39.6626L93.0146 39.4555L92.7841 41.4422ZM75.3069 17.8162L77.258 18.2557L77.8231 15.7474L75.2528 15.8169L75.3069 17.8162ZM58.9206 2.76211C25.2517 3.31517 -2 29.7206 -2 62.3766H2C2 32.055 27.3466 7.28129 58.9863 6.76157L58.9206 2.76211ZM-2 62.3766C-2 95.3811 25.8353 122 60 122V118C27.8905 118 2 93.0211 2 62.3766H-2ZM60 122C94.1647 122 122 95.3811 122 62.3766H118C118 93.0211 92.1095 118 60 118V122ZM122 62.3766C122 60.3248 121.892 58.2966 121.681 56.297L117.704 56.716C117.9 58.5767 118 60.4651 118 62.3766H122ZM118.721 54.7583C116.374 56.0623 113.644 56.8122 110.722 56.8122V60.8122C114.335 60.8122 117.733 59.8836 120.664 58.2547L118.721 54.7583ZM110.722 56.8122C101.842 56.8122 94.7835 49.9192 94.7835 41.5846H90.7835C90.7835 52.2792 99.7871 60.8122 110.722 60.8122V56.8122ZM94.7835 41.5846C94.7835 41.5429 94.7837 41.501 94.784 41.4589L90.7842 41.4255C90.7837 41.4783 90.7835 41.5313 90.7835 41.5846H94.7835ZM93.0146 39.4555C83.8403 38.3912 76.8454 30.9135 76.8454 21.9809H72.8454C72.8454 33.0938 81.5142 42.1482 92.5536 43.4289L93.0146 39.4555ZM76.8454 21.9809C76.8454 20.7009 76.9879 19.4548 77.258 18.2557L73.3558 17.3767C73.0212 18.862 72.8454 20.4027 72.8454 21.9809H76.8454ZM75.2528 15.8169C75.1175 15.8206 74.9817 15.8224 74.8454 15.8224V19.8224C75.0178 19.8224 75.1897 19.8201 75.361 19.8155L75.2528 15.8169ZM74.8454 15.8224C67.7452 15.8224 61.9585 10.8292 60.9279 4.4432L56.979 5.08048C58.3362 13.4904 65.8703 19.8224 74.8454 19.8224V15.8224Z" fill="black" mask="url(#path-1-inside-1_179_241)"/>
</g>
<path d="M79.2938 65.2381C79.2938 69.7871 78.4717 73.8814 77.163 76.8198C76.5085 78.2896 75.742 79.4481 74.9161 80.2324C74.0928 81.0143 73.2337 81.4047 72.3712 81.4047C71.5086 81.4047 70.6495 81.0143 69.8262 80.2324C69.0004 79.4481 68.2339 78.2896 67.5793 76.8198C66.2707 73.8814 65.4485 69.7871 65.4485 65.2381C65.4485 60.689 66.2707 56.5947 67.5793 53.6564C68.2339 52.1866 69.0004 51.0281 69.8262 50.2437C70.6495 49.4618 71.5086 49.0714 72.3712 49.0714C73.2337 49.0714 74.0928 49.4618 74.9161 50.2437C75.742 51.0281 76.5085 52.1866 77.163 53.6564C78.4717 56.5947 79.2938 60.689 79.2938 65.2381Z" fill="black" stroke="black"/>
<path d="M55.7887 65.2381C55.7887 69.7871 54.9665 73.8814 53.6579 76.8198C53.0033 78.2896 52.2368 79.4481 51.411 80.2324C50.5877 81.0143 49.7286 81.4047 48.866 81.4047C48.0035 81.4047 47.1444 81.0143 46.3211 80.2324C45.4952 79.4481 44.7287 78.2896 44.0742 76.8198C42.7655 73.8814 41.9434 69.7871 41.9434 65.2381C41.9434 60.689 42.7655 56.5947 44.0742 53.6564C44.7287 52.1866 45.4952 51.0281 46.3211 50.2437C47.1444 49.4618 48.0035 49.0714 48.866 49.0714C49.7286 49.0714 50.5877 49.4618 51.411 50.2437C52.2368 51.0281 53.0033 52.1866 53.6579 53.6564C54.9665 56.5947 55.7887 60.689 55.7887 65.2381Z" fill="black" stroke="black"/>
<path d="M31.5465 45.7763C31.5465 47.7316 29.6079 48.5713 27.2166 48.5713C24.8252 48.5713 22.8867 47.7316 22.8867 45.7763C22.8867 43.821 24.8252 39.9999 27.2166 39.9999C29.6079 39.9999 31.5465 43.821 31.5465 45.7763Z" fill="black"/>
<path d="M27.2164 78.1573C27.2164 80.1126 25.2778 80.9523 22.8865 80.9523C20.4952 80.9523 18.5566 80.1126 18.5566 78.1573C18.5566 76.202 20.4952 72.3809 22.8865 72.3809C25.2778 72.3809 27.2164 76.202 27.2164 78.1573Z" fill="black"/>
<path d="M53.1959 31.4906C53.1959 33.4459 51.2573 34.2857 48.866 34.2857C46.4747 34.2857 44.5361 33.4459 44.5361 31.4906C44.5361 29.5353 46.4747 25.7142 48.866 25.7142C51.2573 25.7142 53.1959 29.5353 53.1959 31.4906Z" fill="black"/>
<g filter="url(#filter1_d_179_241)">
<path d="M76.7933 6.55574C76.7181 8.5076 74.7506 9.16913 72.3635 8.95112C69.9764 8.73312 68.0735 7.71813 68.1487 5.76626C68.2239 3.8144 70.306 0.176727 72.6931 0.394734C75.0803 0.612741 76.8685 4.60387 76.7933 6.55574Z" fill="#FED7AA"/>
<path d="M76.2954 6.51026C76.2656 7.28329 75.878 7.79397 75.2129 8.11179C74.5206 8.44261 73.5303 8.5563 72.3827 8.4515C71.2352 8.34669 70.2606 8.05356 69.5985 7.59905C68.9625 7.16241 68.6169 6.58477 68.6466 5.81174C68.6794 4.9615 69.1688 3.65422 69.9598 2.5787C70.7635 1.48602 71.7436 0.809402 72.6739 0.894364C73.6042 0.979325 74.5254 1.82958 75.2396 3.06087C75.9425 4.27284 76.3281 5.66003 76.2954 6.51026Z" stroke="black"/>
</g>
<g filter="url(#filter2_d_179_241)">
<path d="M102.316 25.0112C102.166 28.2221 97.6617 29.1104 92.1848 28.505C86.7079 27.8997 82.3324 26.03 82.4821 22.8191C82.6318 19.6081 87.3642 13.824 92.8411 14.4293C98.318 15.0347 102.465 21.8003 102.316 25.0112Z" fill="#FED7AA"/>
<path d="M101.322 24.9013C101.274 25.9206 100.568 26.7281 98.911 27.2242C97.2569 27.7194 94.91 27.8022 92.2314 27.5061C89.5527 27.2101 87.2376 26.612 85.6464 25.7581C84.0529 24.9028 83.4285 23.9482 83.476 22.9289C83.5038 22.3323 83.7574 21.5159 84.2676 20.6032C84.7701 19.7043 85.4879 18.7729 86.3655 17.9486C88.1398 16.2822 90.4363 15.1676 92.7945 15.4282C95.1526 15.6889 97.3222 17.2971 98.9238 19.3367C99.716 20.3455 100.34 21.4252 100.754 22.4254C101.174 23.441 101.35 24.3047 101.322 24.9013Z" stroke="black" stroke-width="2"/>
</g>
<g filter="url(#filter3_d_179_241)">
<path d="M117.635 44.8427C117.674 47.449 114.368 48.6845 110.27 48.8278C106.171 48.971 102.832 47.9678 102.794 45.3614C102.756 42.755 106.003 37.5454 110.101 37.4021C114.2 37.2589 117.597 42.2363 117.635 44.8427Z" fill="#FED7AA"/>
<path d="M117.136 44.8601C117.151 45.8941 116.524 46.7073 115.292 47.3103C114.049 47.9183 112.278 48.2574 110.262 48.3278C108.246 48.3983 106.468 48.1833 105.208 47.6627C103.959 47.1465 103.309 46.3779 103.294 45.3439C103.277 44.2029 104.005 42.3622 105.284 40.7663C106.557 39.178 108.268 37.9664 110.109 37.9021C111.949 37.8378 113.694 38.9285 115.013 40.4263C116.338 41.9311 117.119 43.7191 117.136 44.8601Z" stroke="black"/>
</g>
<path d="M100.206 74.3478C100.206 76.3031 98.2676 77.1428 95.8763 77.1428C93.4849 77.1428 91.5464 76.3031 91.5464 74.3478C91.5464 72.3925 93.4849 68.5714 95.8763 68.5714C98.2676 68.5714 100.206 72.3925 100.206 74.3478Z" fill="black"/>
<path d="M91.5465 98.1574C91.5465 100.113 89.6079 100.952 87.2166 100.952C84.8252 100.952 82.8867 100.113 82.8867 98.1574C82.8867 96.2021 84.8252 92.381 87.2166 92.381C89.6079 92.381 91.5465 96.2021 91.5465 98.1574Z" fill="black"/>
<path d="M56.9072 88.5713C61.1027 97.1427 64.3299 88.5713 64.3299 88.5713" stroke="black" stroke-width="3" stroke-linecap="round"/>
<defs>
<filter id="filter0_d_179_241" x="0" y="4.76184" width="120" height="126.238" filterUnits="userSpaceOnUse" color-interpolation-filters="sRGB">
<feFlood flood-opacity="0" result="BackgroundImageFix"/>
<feColorMatrix in="SourceAlpha" type="matrix" values="0 0 0 0 0 0 0 0 0 0 0 0 0 0 0 0 0 0 127 0" result="hardAlpha"/>
<feOffset dy="11"/>
<feComposite in2="hardAlpha" operator="out"/>
<feColorMatrix type="matrix" values="0 0 0 0 0 0 0 0 0 0 0 0 0 0 0 0 0 0 1 0"/>
<feBlend mode="normal" in2="BackgroundImageFix" result="effect1_dropShadow_179_241"/>
<feBlend mode="normal" in="SourceGraphic" in2="effect1_dropShadow_179_241" result="shape"/>
</filter>
<filter id="filter1_d_179_241" x="68.1465" y="0.385376" width="8.64917" height="10.6055" filterUnits="userSpaceOnUse" color-interpolation-filters="sRGB">
<feFlood flood-opacity="0" result="BackgroundImageFix"/>
<feColorMatrix in="SourceAlpha" type="matrix" values="0 0 0 0 0 0 0 0 0 0 0 0 0 0 0 0 0 0 127 0" result="hardAlpha"/>
<feOffset dy="2"/>
<feComposite in2="hardAlpha" operator="out"/>
<feColorMatrix type="matrix" values="0 0 0 0 0 0 0 0 0 0 0 0 0 0 0 0 0 0 1 0"/>
<feBlend mode="normal" in2="BackgroundImageFix" result="effect1_dropShadow_179_241"/>
<feBlend mode="normal" in="SourceGraphic" in2="effect1_dropShadow_179_241" result="shape"/>
</filter>
<filter id="filter2_d_179_241" x="82.4783" y="14.3853" width="19.8413" height="16.2974" filterUnits="userSpaceOnUse" color-interpolation-filters="sRGB">
<feFlood flood-opacity="0" result="BackgroundImageFix"/>
<feColorMatrix in="SourceAlpha" type="matrix" values="0 0 0 0 0 0 0 0 0 0 0 0 0 0 0 0 0 0 127 0" result="hardAlpha"/>
<feOffset dy="2"/>
<feComposite in2="hardAlpha" operator="out"/>
<feColorMatrix type="matrix" values="0 0 0 0 0 0 0 0 0 0 0 0 0 0 0 0 0 0 1 0"/>
<feBlend mode="normal" in2="BackgroundImageFix" result="effect1_dropShadow_179_241"/>
<feBlend mode="normal" in="SourceGraphic" in2="effect1_dropShadow_179_241" result="shape"/>
</filter>
<filter id="filter3_d_179_241" x="102.794" y="37.3992" width="14.842" height="13.4419" filterUnits="userSpaceOnUse" color-interpolation-filters="sRGB">
<feFlood flood-opacity="0" result="BackgroundImageFix"/>
<feColorMatrix in="SourceAlpha" type="matrix" values="0 0 0 0 0 0 0 0 0 0 0 0 0 0 0 0 0 0 127 0" result="hardAlpha"/>
<feOffset dy="2"/>
<feComposite in2="hardAlpha" operator="out"/>
<feColorMatrix type="matrix" values="0 0 0 0 0 0 0 0 0 0 0 0 0 0 0 0 0 0 1 0"/>
<feBlend mode="normal" in2="BackgroundImageFix" result="effect1_dropShadow_179_241"/>
<feBlend mode="normal" in="SourceGraphic" in2="effect1_dropShadow_179_241" result="shape"/>
</filter>
</defs>
</svg>
